<svg xmlns="http://www.w3.org/2000/svg" viewBox="0 0 24 24" fill="none">
  <defs>
    <linearGradient id="brainGradient" x1="0%" y1="0%" x2="100%" y2="100%">
      <stop offset="0%" style="stop-color:#a855f7;stop-opacity:1" />
      <stop offset="100%" style="stop-color:#6366f1;stop-opacity:1" />
    </linearGradient>
  </defs>
  <path d="M12 2C9.243 2 7 4.243 7 7c0 .552-.448 1-1 1s-1-.448-1-1c0-3.86 3.14-7 7-7s7 3.14 7 7c0 .552-.448 1-1 1s-1-.448-1-1c0-2.757-2.243-5-5-5z" fill="url(#brainGradient)"/>
  <path d="M15.5 6C14.119 6 13 7.119 13 8.5S14.119 11 15.5 11 18 9.881 18 8.5 16.881 6 15.5 6zm-7 0C7.119 6 6 7.119 6 8.5S7.119 11 8.5 11 11 9.881 11 8.5 9.881 6 8.5 6z" fill="url(#brainGradient)" opacity="0.8"/>
  <path d="M12 8c-2.21 0-4 1.79-4 4v6c0 2.21 1.79 4 4 4s4-1.79 4-4v-6c0-2.21-1.79-4-4-4zm0 2c1.105 0 2 .895 2 2v6c0 1.105-.895 2-2 2s-2-.895-2-2v-6c0-1.105.895-2 2-2z" fill="url(#brainGradient)"/>
  <path d="M9 12c-.552 0-1 .448-1 1v2c0 .552.448 1 1 1s1-.448 1-1v-2c0-.552-.448-1-1-1zm6 0c-.552 0-1 .448-1 1v2c0 .552.448 1 1 1s1-.448 1-1v-2c0-.552-.448-1-1-1z" fill="url(#brainGradient)" opacity="0.6"/>
</svg>
