<svg xmlns="http://www.w3.org/2000/svg" viewBox="0 0 32 32" fill="none">
  <defs>
    <linearGradient id="logoGradient" x1="0%" y1="0%" x2="100%" y2="100%">
      <stop offset="0%" style="stop-color:#5eead4"/>
      <stop offset="50%" style="stop-color:#14b8a6"/>
      <stop offset="100%" style="stop-color:#0d9488"/>
    </linearGradient>
  </defs>
  <!-- Brain shape -->
  <path d="M16 4C11.582 4 8 7.582 8 12c0 1.657-.343 3.156-.906 4.438C6.03 18.75 6 21.5 8 24c1.5 1.875 4 3 8 3s6.5-1.125 8-3c2-2.5 1.97-5.25.906-7.562C24.343 15.156 24 13.657 24 12c0-4.418-3.582-8-8-8z" fill="url(#logoGradient)"/>
  <!-- Brain details - left hemisphere -->
  <path d="M10 11c0-1.105.895-2 2-2s2 .895 2 2c0 .552-.448 1-1 1s-1-.448-1-1c0-.552-.448-1-1-1s-1 .448-1 1c0 .552-.448 1-1 1s-1-.448-1-1z" fill="white" opacity="0.3"/>
  <!-- Brain details - right hemisphere -->
  <path d="M18 11c0-1.105.895-2 2-2s2 .895 2 2c0 .552-.448 1-1 1s-1-.448-1-1c0-.552-.448-1-1-1s-1 .448-1 1c0 .552-.448 1-1 1s-1-.448-1-1z" fill="white" opacity="0.3"/>
  <!-- Center line -->
  <path d="M16 8v12" stroke="white" stroke-width="1.5" stroke-linecap="round" opacity="0.4"/>
  <!-- Brain folds -->
  <path d="M11 14c2-1 3 1 5 0" stroke="white" stroke-width="1" stroke-linecap="round" opacity="0.3"/>
  <path d="M16 14c2-1 3 1 5 0" stroke="white" stroke-width="1" stroke-linecap="round" opacity="0.3"/>
  <path d="M12 18c1.5 1 3 1 4.5 0" stroke="white" stroke-width="1" stroke-linecap="round" opacity="0.3"/>
</svg>
